<?xml version="1.0" standalone="no"?>
<!DOCTYPE svg PUBLIC "-//W3C//DTD SVG 20010904//EN"
 "http://www.w3.org/TR/2001/REC-SVG-20010904/DTD/svg10.dtd">
<svg version="1.0" xmlns="http://www.w3.org/2000/svg"
 width="2048.000000pt" height="1384.000000pt" viewBox="0 0 2048.000000 1384.000000"
 preserveAspectRatio="xMidYMid meet">

<g transform="translate(0.000000,1384.000000) scale(0.100000,-0.100000)"
fill="#000000" stroke="none">
<path d="M11232 6188 c-20 -20 -14 -56 13 -74 23 -15 27 -15 50 0 44 29 28 86
-25 86 -14 0 -31 -5 -38 -12z"/>
<path d="M5130 6176 c0 -3 47 -83 105 -179 l105 -175 0 -111 0 -111 40 0 40 0
0 113 0 112 79 132 c44 73 92 152 106 177 l27 46 -50 0 -50 0 -73 -130 c-41
-71 -77 -130 -80 -130 -4 0 -40 58 -80 130 l-74 130 -47 0 c-27 0 -48 -2 -48
-4z"/>
<path d="M6810 5890 l0 -290 39 0 40 0 3 155 c3 151 4 155 29 181 16 16 41 28
67 31 36 5 45 2 72 -25 l30 -30 0 -156 0 -156 40 0 40 0 0 173 c0 153 -2 176
-20 204 -50 82 -176 87 -242 8 -17 -19 -17 -15 -18 88 l0 107 -40 0 -40 0 0
-290z"/>
<path d="M10960 6090 c0 -49 -1 -50 -30 -50 -28 0 -30 -3 -30 -35 0 -32 2 -35
30 -35 l30 0 0 -145 c0 -163 8 -194 59 -215 29 -11 108 -16 117 -7 2 2 1 18
-2 35 -5 26 -11 32 -33 32 -53 0 -56 8 -59 160 l-4 140 46 0 c46 0 46 0 46 35
0 35 0 35 -45 35 l-45 0 0 50 0 50 -40 0 -40 0 0 -50z"/>
<path d="M15200 6090 c0 -49 -1 -50 -30 -50 -28 0 -30 -3 -30 -35 0 -32 2 -35
30 -35 l30 0 0 -135 c0 -181 21 -229 105 -236 58 -4 75 0 75 20 0 36 -12 51
-39 51 -47 0 -51 13 -51 162 l0 138 45 0 c45 0 45 0 45 35 0 35 0 35 -45 35
l-45 0 0 50 0 50 -45 0 -45 0 0 -50z"/>
<path d="M5725 6017 c-21 -12 -52 -41 -69 -64 -24 -35 -30 -55 -34 -116 -4
-65 -1 -82 21 -130 70 -153 289 -154 358 -2 25 54 25 166 0 220 -22 47 -64 89
-104 104 -48 19 -128 13 -172 -12z m170 -80 c41 -41 54 -108 36 -177 -23 -84
-88 -120 -157 -87 -45 22 -67 68 -67 142 0 99 42 155 116 155 31 0 46 -7 72
-33z"/>
<path d="M6120 5878 c0 -183 13 -234 67 -261 61 -32 124 -25 173 19 l40 36 0
-36 c0 -35 1 -36 40 -36 l40 0 0 220 0 220 -40 0 -40 0 0 -135 c0 -156 -11
-195 -60 -220 -44 -22 -95 -13 -118 22 -14 22 -18 55 -20 180 l-4 153 -39 0
-39 0 0 -162z"/>
<path d="M7363 6019 c-23 -11 -51 -35 -62 -52 l-21 -32 38 -11 c34 -10 39 -9
65 18 23 23 37 28 76 28 50 0 72 -15 85 -56 10 -34 -16 -51 -91 -59 -128 -14
-183 -52 -183 -129 0 -128 166 -186 255 -90 l25 27 0 -32 c0 -30 2 -31 40 -31
l40 0 0 169 c0 158 -1 170 -23 202 -12 19 -38 42 -57 51 -49 25 -134 23 -187
-3z m184 -256 c-4 -37 -12 -54 -36 -75 -77 -69 -206 -5 -143 71 15 19 86 39
176 50 5 1 6 -20 3 -46z"/>
<path d="M7700 6033 c0 -4 34 -104 76 -220 l76 -213 47 0 46 0 74 208 c41 114
76 213 79 220 3 8 -9 12 -41 12 l-45 0 -52 -157 c-28 -87 -54 -165 -57 -173
-3 -8 -31 62 -62 155 l-56 170 -42 3 c-24 2 -43 0 -43 -5z"/>
<path d="M8259 6020 c-81 -43 -115 -117 -106 -233 3 -55 10 -77 33 -110 44
-62 85 -82 169 -82 81 0 126 21 163 76 l24 34 -41 9 c-36 8 -42 6 -63 -19 -28
-32 -98 -44 -137 -23 -30 16 -58 54 -67 91 l-6 27 156 0 156 0 0 44 c0 50 -15
100 -43 140 -43 61 -165 85 -238 46z m160 -77 c17 -16 33 -40 37 -55 l6 -28
-116 0 c-64 0 -116 3 -116 6 0 3 7 21 16 40 32 67 120 86 173 37z"/>
<path d="M8850 5820 l0 -220 39 0 40 0 3 154 c3 147 4 156 27 180 29 30 75 41
114 27 46 -18 57 -61 57 -221 l0 -140 40 0 40 0 0 165 c0 145 -2 171 -20 204
-23 45 -70 71 -130 71 -49 0 -77 -13 -107 -48 l-23 -27 0 38 c0 37 0 37 -40
37 l-40 0 0 -220z"/>
<path d="M9425 6024 c-82 -45 -114 -105 -115 -210 0 -88 27 -145 89 -189 37
-26 51 -30 109 -30 81 0 123 21 167 84 26 38 30 52 33 124 3 70 0 89 -20 126
-13 25 -40 58 -61 75 -32 26 -48 31 -105 33 -48 2 -76 -1 -97 -13z m153 -79
c73 -61 62 -229 -18 -270 -103 -53 -198 65 -160 200 25 90 114 124 178 70z"/>
<path d="M10105 6026 c-17 -7 -46 -31 -64 -52 l-35 -39 40 -11 c37 -11 41 -10
68 17 23 24 37 29 76 29 40 0 52 -4 69 -26 45 -57 26 -75 -99 -94 -117 -17
-160 -52 -160 -130 0 -97 112 -158 214 -116 18 8 41 24 50 37 l16 23 0 -32 c0
-31 2 -32 41 -32 l40 0 -3 179 c-3 175 -4 180 -28 207 -14 14 -39 33 -57 40
-41 17 -128 17 -168 0z m172 -263 c-4 -37 -12 -54 -36 -75 -77 -69 -206 -5
-143 71 15 19 66 33 176 50 5 0 6 -20 3 -46z"/>
<path d="M10575 6026 c-39 -18 -80 -62 -99 -108 -22 -52 -20 -162 3 -213 47
-105 187 -146 287 -85 27 17 74 88 74 113 0 4 -18 7 -40 7 -33 0 -42 -4 -52
-25 -6 -13 -27 -32 -46 -41 -29 -14 -41 -14 -74 -5 -64 20 -97 94 -83 188 14
98 119 149 180 88 14 -13 25 -29 25 -35 0 -5 20 -10 45 -10 25 0 45 3 45 8 -1
25 -51 90 -85 109 -46 26 -132 30 -180 9z"/>
<path d="M11230 5820 l0 -220 40 0 40 0 0 220 0 220 -40 0 -40 0 0 -220z"/>
<path d="M11400 6028 c0 -12 106 -313 142 -401 10 -26 15 -28 56 -25 l45 3 77
213 c83 227 83 226 19 220 l-33 -3 -54 -170 c-30 -93 -57 -163 -60 -155 -3 8
-29 85 -57 170 l-51 155 -42 3 c-30 2 -42 -1 -42 -10z"/>
<path d="M11965 6026 c-39 -18 -80 -62 -99 -108 -22 -52 -20 -162 3 -213 56
-123 231 -154 328 -58 43 44 42 60 -3 69 -28 5 -39 3 -46 -10 -12 -22 -61 -46
-93 -46 -44 0 -92 29 -109 65 -32 66 -33 65 140 65 l157 0 -6 60 c-7 81 -43
141 -100 169 -50 24 -126 27 -172 7z m144 -72 c19 -14 51 -69 51 -89 0 -3 -52
-5 -115 -5 -120 0 -125 2 -104 43 31 62 116 87 168 51z"/>
<path d="M12550 5821 l0 -221 40 0 40 0 0 151 0 151 29 29 c28 28 48 34 99 29
19 -1 22 3 22 39 l0 41 -41 0 c-33 0 -47 -6 -74 -33 l-34 -34 -3 31 c-3 28 -7
31 -40 34 l-38 3 0 -220z"/>
<path d="M12925 6017 c-21 -12 -53 -42 -70 -65 -28 -41 -30 -50 -30 -130 0
-105 20 -152 84 -197 38 -27 51 -30 114 -30 84 0 128 20 165 76 l24 34 -41 9
c-36 8 -42 6 -63 -19 -28 -32 -98 -44 -137 -23 -30 16 -58 54 -67 91 l-6 27
157 0 158 0 -6 65 c-6 83 -40 138 -100 166 -58 26 -132 24 -182 -4z m164 -74
c17 -16 33 -40 37 -55 l6 -28 -116 0 c-64 0 -116 3 -116 6 0 3 7 21 16 40 32
67 120 86 173 37z"/>
<path d="M13388 6020 c-66 -36 -98 -103 -98 -209 0 -75 22 -131 66 -173 71
-66 167 -63 223 8 l21 27 0 -117 0 -116 45 0 45 0 -2 298 -3 297 -40 0 c-38 0
-40 -2 -45 -35 -5 -34 -6 -34 -18 -13 -29 53 -126 69 -194 33z m152 -63 c60
-30 82 -171 37 -238 -33 -49 -70 -64 -119 -50 -127 38 -105 301 25 301 18 0
43 -6 57 -13z"/>
<path d="M13800 5878 c0 -138 3 -169 19 -205 42 -92 173 -103 243 -19 17 21
17 20 18 -16 0 -38 1 -38 40 -38 l40 0 0 220 0 220 -40 0 -40 0 0 -137 c0
-111 -3 -145 -18 -173 -21 -43 -62 -64 -108 -55 -59 11 -69 37 -72 212 l-4
153 -39 0 -39 0 0 -162z"/>
<path d="M14375 6023 c-81 -42 -115 -104 -115 -208 0 -82 22 -138 69 -178 77
-65 209 -61 278 8 43 43 42 62 -2 71 -29 5 -38 2 -57 -21 -28 -32 -98 -44
-137 -23 -30 16 -58 54 -67 91 l-6 27 156 0 156 0 0 44 c0 86 -39 158 -104
187 -50 23 -130 24 -171 2z m154 -80 c17 -16 33 -40 37 -55 l6 -28 -116 0
c-64 0 -116 2 -116 4 0 1 5 18 11 35 24 70 124 94 178 44z"/>
<path d="M14815 6020 c-53 -26 -79 -70 -72 -121 3 -22 11 -47 18 -55 18 -22
78 -50 124 -59 76 -13 105 -31 105 -63 0 -39 -20 -54 -80 -60 -45 -4 -52 -2
-80 27 -31 31 -62 39 -89 22 -19 -12 -6 -45 30 -75 82 -70 240 -55 289 27 53
85 5 158 -122 186 -69 16 -96 28 -108 51 -15 29 3 57 44 68 46 13 83 4 106
-25 17 -22 25 -24 55 -19 41 8 41 11 16 52 -38 63 -155 84 -236 44z"/>
<path d="M11079 4704 c-9 -11 -10 -20 -2 -32 14 -22 43 -22 57 1 9 15 7 21 -8
33 -25 18 -31 18 -47 -2z"/>
<path d="M11287 4700 c-20 -16 -27 -31 -29 -68 -3 -43 -5 -47 -30 -50 -16 -2
-28 -9 -28 -17 0 -8 12 -15 28 -17 l27 -3 3 -152 c2 -145 4 -153 22 -153 19 0
20 7 20 155 l0 155 40 0 c54 0 56 27 3 32 -34 3 -38 6 -41 33 -3 40 9 56 49
64 20 4 35 14 37 24 5 25 -67 23 -101 -3z"/>
<path d="M11465 4706 c-20 -15 -15 -43 10 -52 18 -7 45 12 45 32 0 22 -35 35
-55 20z"/>
<path d="M12566 4704 c-12 -12 -13 -20 -6 -35 11 -20 19 -23 44 -13 19 7 21
35 4 52 -16 16 -23 15 -42 -4z"/>
<path d="M6942 4698 c-43 -14 -108 -86 -121 -134 -14 -51 -14 -142 0 -185 29
-86 101 -139 189 -139 83 0 153 47 174 118 12 35 -34 30 -56 -7 -36 -64 -109
-85 -180 -53 -36 16 -50 29 -68 68 -47 96 -24 223 49 271 68 45 179 19 204
-47 8 -21 18 -30 34 -30 27 0 28 10 9 48 -42 82 -141 119 -234 90z"/>
<path d="M7280 4470 l0 -230 25 0 25 0 0 124 c0 115 2 127 23 151 15 18 36 28
64 32 35 5 45 2 67 -20 25 -25 26 -30 26 -157 l0 -130 25 0 25 0 0 118 c0 145
-11 187 -53 212 -49 30 -99 26 -142 -11 l-35 -31 0 86 c0 85 0 86 -25 86 l-25
0 0 -230z"/>
<path d="M8390 4470 l0 -230 25 0 c24 0 25 2 25 68 0 57 4 72 21 88 13 12 23
15 27 7 4 -6 34 -45 67 -87 50 -63 65 -76 89 -76 21 0 26 3 19 13 -5 6 -36 46
-69 87 -33 41 -64 81 -68 89 -6 9 13 34 60 82 l68 69 -31 0 c-27 0 -42 -12
-99 -75 -37 -41 -71 -75 -76 -75 -4 0 -8 61 -8 135 l0 135 -25 0 -25 0 0 -230z"/>
<path d="M9160 4470 l0 -230 25 0 25 0 0 128 c1 132 5 148 47 170 34 19 69 14
100 -12 28 -24 28 -26 31 -155 3 -121 5 -131 23 -131 18 0 19 9 19 139 0 135
-1 140 -26 170 -43 52 -124 54 -170 4 l-24 -26 0 87 c0 85 0 86 -25 86 l-25 0
0 -230z"/>
<path d="M8940 4625 c0 -41 -2 -45 -25 -45 -16 0 -25 -6 -25 -15 0 -9 9 -15
24 -15 l24 0 4 -131 c3 -129 3 -131 31 -155 34 -29 100 -34 95 -7 -2 9 -16 20
-32 24 -16 5 -33 14 -37 21 -5 7 -9 66 -9 131 l0 117 35 0 c46 0 49 27 3 32
-31 3 -33 6 -36 46 -3 37 -6 42 -28 42 -22 0 -24 -4 -24 -45z"/>
<path d="M10870 4625 c0 -41 -2 -45 -25 -45 -16 0 -25 -6 -25 -15 0 -9 9 -15
25 -15 l25 0 0 -126 c0 -125 0 -126 29 -155 21 -21 39 -29 64 -29 29 0 34 3
30 18 -2 10 -19 22 -36 28 l-32 9 -3 128 -3 127 36 0 c24 0 35 4 35 15 0 10
-11 15 -35 15 -35 0 -35 0 -35 45 0 41 -2 45 -25 45 -23 0 -25 -4 -25 -45z"/>
<path d="M12358 4628 c-3 -39 -6 -43 -30 -46 -16 -2 -28 -9 -28 -17 0 -8 12
-15 28 -17 l27 -3 3 -132 c3 -129 3 -132 29 -152 35 -28 93 -29 93 -1 0 12 -7
20 -18 20 -10 0 -28 7 -40 16 -21 14 -22 22 -22 135 l0 119 40 0 c54 0 56 27
3 32 -37 3 -38 4 -41 46 -3 33 -7 42 -22 42 -15 0 -19 -9 -22 -42z"/>
<path d="M7730 4571 c-53 -27 -80 -82 -80 -161 0 -75 21 -119 72 -150 64 -39
177 -18 207 38 17 32 -24 36 -54 6 -29 -29 -98 -33 -134 -8 -21 15 -51 70 -51
94 0 6 46 10 125 10 l125 0 0 41 c0 57 -24 102 -69 127 -47 27 -95 28 -141 3z
m119 -36 c25 -12 51 -57 51 -86 0 -5 -47 -9 -105 -9 -58 0 -105 2 -105 4 0 24
29 72 54 87 37 23 67 24 105 4z"/>
<path d="M8115 4580 c-28 -11 -72 -60 -84 -93 -17 -43 -13 -117 9 -164 25 -57
69 -83 139 -83 47 0 57 4 87 34 35 35 44 66 20 66 -8 0 -28 -13 -44 -30 -24
-24 -39 -30 -72 -30 -50 0 -84 30 -100 88 -34 128 89 239 170 152 46 -49 81
-34 44 19 -30 42 -116 63 -169 41z"/>
<path d="M9614 4576 c-117 -53 -123 -266 -10 -320 68 -32 170 -14 197 35 9 17
8 23 -2 30 -19 12 -27 11 -36 -5 -22 -37 -112 -49 -149 -18 -26 21 -44 54 -44
81 0 20 5 21 125 21 l125 0 0 38 c0 46 -26 99 -61 125 -34 25 -105 31 -145 13z
m127 -55 c17 -17 29 -40 29 -55 l0 -26 -100 0 c-95 0 -100 1 -100 21 0 12 15
36 34 55 45 45 95 47 137 5z"/>
<path d="M10194 4580 c-12 -5 -28 -18 -36 -29 -16 -23 -28 -18 -28 11 0 11 -7
18 -20 18 -19 0 -20 -7 -20 -170 l0 -170 25 0 25 0 0 128 c1 132 5 148 47 170
35 19 72 14 98 -13 24 -23 25 -29 25 -155 l0 -130 25 0 25 0 0 133 c0 114 -3
136 -20 165 -29 47 -90 65 -146 42z"/>
<path d="M10545 4580 c-28 -11 -72 -60 -84 -93 -17 -43 -13 -117 9 -164 25
-57 69 -83 139 -83 48 0 57 3 91 38 88 87 72 243 -30 294 -37 19 -91 22 -125
8z m114 -46 c69 -49 66 -210 -5 -243 -31 -14 -79 -14 -105 -1 -36 20 -54 75
-51 159 3 47 58 101 104 101 18 0 44 -7 57 -16z"/>
<path d="M11695 4580 c-59 -24 -95 -90 -95 -172 0 -103 61 -168 157 -168 49 0
59 4 89 34 19 19 34 41 34 50 0 25 -30 19 -60 -14 -37 -39 -99 -42 -135 -6
-62 62 -52 193 19 231 43 23 100 14 122 -20 17 -26 54 -34 54 -12 0 57 -116
106 -185 77z"/>
<path d="M12040 4579 c-27 -11 -70 -48 -70 -60 0 -19 35 -18 56 2 13 12 41 23
67 26 36 4 49 1 66 -16 26 -26 27 -67 4 -79 -10 -5 -44 -12 -76 -16 -65 -7
-111 -27 -121 -51 -3 -9 -6 -34 -6 -55 0 -55 43 -90 110 -90 38 0 55 6 79 26
l31 26 0 -26 c0 -21 5 -26 25 -26 l25 0 0 125 c0 150 -12 188 -64 210 -40 17
-89 18 -126 4z m130 -255 c-26 -47 -126 -62 -154 -22 -36 51 -8 84 85 99 35 6
66 13 69 16 11 11 11 -72 0 -93z"/>
<path d="M12779 4567 c-72 -48 -99 -159 -58 -243 26 -56 72 -84 134 -84 97 0
150 62 150 176 0 62 -3 75 -29 108 -50 66 -135 85 -197 43z m129 -33 c34 -23
52 -67 52 -124 0 -84 -36 -129 -103 -130 -79 0 -112 45 -105 148 4 58 8 68 36
93 37 33 84 38 120 13z"/>
<path d="M13178 4560 c-36 -36 -38 -37 -38 -5 0 18 -5 25 -20 25 -19 0 -20 -7
-20 -170 0 -163 1 -170 20 -170 19 0 20 7 20 103 0 128 12 172 50 192 42 22
77 18 105 -10 24 -23 25 -29 25 -155 l0 -130 25 0 25 0 0 118 c0 145 -11 187
-53 212 -49 30 -102 26 -139 -10z"/>
<path d="M13534 4580 c-32 -13 -64 -59 -64 -92 0 -48 70 -98 140 -98 27 0 60
-30 60 -55 0 -56 -110 -77 -154 -30 -35 38 -69 28 -46 -15 19 -35 67 -53 133
-48 52 4 64 9 88 36 58 65 24 131 -79 154 -64 14 -103 45 -96 76 12 44 101 57
137 19 20 -21 57 -26 57 -8 0 13 -42 52 -67 62 -30 11 -80 11 -109 -1z"/>
<path d="M11080 4410 l0 -170 25 0 25 0 0 170 0 170 -25 0 -25 0 0 -170z"/>
<path d="M11460 4410 l0 -170 25 0 25 0 0 170 0 170 -25 0 -25 0 0 -170z"/>
<path d="M12570 4410 c0 -163 1 -170 20 -170 19 0 20 7 20 170 0 163 -1 170
-20 170 -19 0 -20 -7 -20 -170z"/>
<path d="M6688 3668 c-2 -36 -7 -44 -25 -46 -32 -5 -30 -32 2 -32 l25 0 0
-127 c1 -85 5 -133 13 -144 17 -23 52 -39 81 -39 21 0 26 5 26 25 0 17 -4 23
-14 19 -8 -3 -24 -1 -35 6 -20 10 -21 19 -21 135 l0 125 35 0 c24 0 35 5 35
15 0 10 -11 15 -35 15 -35 0 -35 0 -35 45 0 41 -2 45 -24 45 -22 0 -25 -5 -28
-42z"/>
<path d="M9318 3668 c-2 -36 -7 -44 -25 -46 -32 -5 -30 -32 2 -32 l25 0 0
-124 c0 -68 3 -132 6 -141 8 -20 56 -45 89 -45 18 0 25 5 25 20 0 13 -7 20
-20 20 -11 0 -29 9 -40 20 -19 19 -20 31 -18 133 l3 112 38 3 c23 2 37 8 37
17 0 9 -14 15 -37 17 -37 3 -38 4 -41 46 -3 33 -7 42 -22 42 -15 0 -19 -9 -22
-42z"/>
<path d="M13248 3668 c-3 -39 -6 -43 -30 -46 -16 -2 -28 -9 -28 -17 0 -8 12
-15 28 -17 l27 -3 5 -132 c6 -150 11 -161 79 -170 37 -5 41 -4 41 16 0 14 -6
21 -20 21 -11 0 -29 9 -40 20 -18 18 -20 33 -20 135 l0 115 40 0 c54 0 56 27
3 32 -37 3 -38 4 -41 46 -3 33 -7 42 -22 42 -15 0 -19 -9 -22 -42z"/>
<path d="M6975 3620 c-28 -11 -72 -60 -84 -93 -17 -43 -13 -117 9 -164 25 -57
69 -83 139 -83 48 0 57 3 91 38 87 87 71 244 -30 294 -37 19 -91 22 -125 8z
m118 -50 c34 -27 50 -80 44 -143 -6 -67 -47 -107 -108 -107 -90 0 -136 125
-81 222 29 49 100 63 145 28z"/>
<path d="M7514 3616 c-17 -8 -39 -24 -48 -37 -15 -22 -15 -24 5 -31 15 -6 29
-1 51 17 50 43 126 27 142 -30 9 -33 -8 -46 -79 -56 -37 -5 -80 -15 -94 -22
-62 -30 -67 -121 -8 -157 48 -30 121 -27 153 5 14 14 27 25 29 25 3 0 5 -11 5
-25 0 -18 5 -25 20 -25 19 0 20 7 20 138 0 108 -3 142 -16 160 -34 49 -115 66
-180 38z m153 -203 c-7 -61 -41 -93 -98 -93 -59 0 -79 14 -79 56 0 26 5 37 23
45 19 9 113 32 151 38 5 0 6 -20 3 -46z"/>
<path d="M7880 3608 c-53 -36 -83 -100 -77 -170 9 -103 63 -158 155 -158 43 0
57 5 85 30 19 17 37 39 40 50 8 31 -26 25 -61 -10 -60 -59 -152 -28 -168 57
-19 99 18 170 94 180 37 5 45 2 71 -26 38 -40 78 -41 58 -2 -19 38 -61 63
-114 68 -39 4 -55 0 -83 -19z"/>
<path d="M8255 3620 c-28 -11 -72 -60 -84 -93 -17 -43 -13 -117 9 -164 25 -57
69 -83 139 -83 47 0 57 4 87 34 35 35 44 66 20 66 -8 0 -28 -13 -44 -30 -24
-24 -39 -30 -72 -30 -50 0 -84 30 -100 88 -34 128 89 239 170 152 46 -49 81
-34 44 19 -30 42 -116 63 -169 41z"/>
<path d="M8600 3611 c-53 -27 -80 -82 -80 -161 0 -75 21 -119 72 -150 64 -39
177 -18 207 38 17 32 -24 36 -54 6 -29 -29 -98 -33 -134 -8 -21 15 -51 70 -51
94 0 6 46 10 125 10 l125 0 0 41 c0 57 -24 102 -69 127 -47 27 -95 28 -141 3z
m119 -36 c25 -12 51 -57 51 -86 0 -5 -47 -9 -105 -9 -58 0 -105 2 -105 4 0 24
29 72 54 87 37 23 67 24 105 4z"/>
<path d="M8988 3600 c-36 -36 -38 -37 -38 -5 0 18 -5 25 -20 25 -19 0 -20 -7
-20 -235 0 -228 1 -235 20 -235 19 0 20 7 20 96 l0 96 35 -31 c63 -55 151 -37
194 39 29 52 29 161 1 208 -46 74 -139 95 -192 42z m121 -26 c29 -21 51 -72
51 -119 0 -80 -45 -135 -110 -135 -44 1 -66 17 -85 63 -41 98 7 207 90 207 17
0 41 -7 54 -16z"/>
<path d="M9788 3600 c-36 -36 -38 -37 -38 -5 0 18 -5 25 -20 25 -19 0 -20 -7
-20 -170 0 -163 1 -170 20 -170 19 0 20 7 20 113 0 138 15 177 72 191 47 12
85 -4 98 -40 6 -14 10 -79 10 -145 l0 -119 26 0 26 0 -4 138 c-3 108 -7 142
-21 163 -38 57 -121 66 -169 19z"/>
<path d="M10150 3611 c-53 -27 -80 -82 -80 -161 0 -75 21 -119 72 -150 64 -39
177 -18 207 38 17 32 -24 36 -54 6 -29 -29 -98 -33 -134 -8 -21 15 -51 70 -51
94 0 6 46 10 126 10 l126 0 -4 55 c-3 40 -11 62 -29 81 -52 56 -117 69 -179
35z m114 -32 c23 -11 56 -62 56 -88 0 -7 -35 -11 -105 -11 -116 0 -119 2 -85
58 30 48 82 64 134 41z"/>
<path d="M11229 3601 l-29 -29 0 24 c0 19 -5 24 -25 24 l-25 0 0 -170 0 -170
25 0 25 0 0 124 c0 117 2 127 23 152 18 20 34 28 60 28 31 1 37 4 37 24 0 34
-53 30 -91 -7z"/>
<path d="M11450 3611 c-53 -27 -80 -82 -80 -161 0 -75 21 -119 72 -150 64 -39
177 -18 207 38 17 32 -24 36 -54 6 -29 -29 -98 -33 -134 -8 -21 15 -51 70 -51
94 0 6 46 10 126 10 l126 0 -4 55 c-3 40 -11 62 -29 81 -52 56 -117 69 -179
35z m114 -32 c23 -11 56 -62 56 -88 0 -7 -35 -11 -105 -11 -116 0 -119 2 -85
58 30 48 82 64 134 41z"/>
<path d="M11812 3610 c-43 -26 -71 -90 -72 -158 0 -106 54 -172 142 -172 43 0
54 4 79 31 l29 31 0 -96 c0 -96 0 -96 25 -96 l25 0 0 235 0 235 -25 0 c-20 0
-25 -5 -25 -26 l0 -26 -35 31 c-43 37 -93 41 -143 11z m122 -31 c71 -33 76
-212 7 -249 -11 -5 -36 -10 -56 -10 -135 0 -133 267 2 270 12 0 33 -5 47 -11z"/>
<path d="M12579 3607 c-72 -47 -99 -158 -59 -244 26 -58 69 -83 142 -83 50 0
62 4 93 31 39 35 42 44 19 53 -9 4 -28 -4 -46 -19 -32 -27 -93 -34 -129 -15
-22 12 -49 61 -49 90 0 19 6 20 125 20 l125 0 0 33 c0 18 -10 53 -22 77 -39
77 -130 103 -199 57z m142 -46 c17 -17 29 -40 29 -55 l0 -26 -100 0 c-109 0
-116 5 -86 59 32 57 111 68 157 22z"/>
<path d="M12943 3615 c-43 -18 -68 -69 -54 -107 13 -35 47 -56 118 -74 81 -21
103 -54 63 -94 -15 -15 -33 -20 -69 -20 -41 0 -53 4 -70 26 -21 27 -51 27 -51
1 0 -31 49 -61 109 -65 93 -7 141 28 141 102 0 44 -28 67 -112 91 -75 20 -88
30 -88 61 0 53 102 75 138 30 13 -18 25 -23 40 -19 18 4 20 9 11 25 -27 51
-111 71 -176 43z"/>
<path d="M13503 3616 c-39 -18 -55 -46 -51 -94 4 -45 40 -73 122 -91 74 -17
96 -51 56 -91 -15 -15 -33 -20 -69 -20 -42 0 -52 4 -69 27 -20 27 -52 27 -52
0 0 -31 49 -61 109 -65 95 -7 145 31 139 105 -4 46 -32 68 -118 91 -55 15 -66
21 -75 46 -8 24 -6 31 14 47 35 28 95 25 119 -6 16 -20 25 -23 42 -17 l23 8
-30 34 c-24 27 -38 33 -79 36 -29 3 -62 -1 -81 -10z"/>
<path d="M10433 3608 c2 -7 26 -84 52 -170 43 -142 51 -158 70 -158 20 0 26
14 61 135 21 74 41 135 45 135 3 0 24 -61 45 -135 34 -122 40 -135 60 -135 20
0 26 11 49 88 15 48 37 122 51 165 13 43 24 80 24 83 0 2 -10 4 -23 4 -21 0
-26 -11 -56 -122 -19 -68 -37 -127 -41 -132 -9 -9 -8 -11 -45 124 -14 52 -28
103 -31 113 -3 11 -15 17 -32 17 -26 0 -28 -5 -61 -122 -36 -130 -46 -152 -54
-122 -24 81 -47 166 -57 202 -9 36 -15 42 -36 42 -17 0 -24 -5 -21 -12z"/>
<path d="M12142 3488 c4 -144 12 -169 58 -193 52 -27 106 -16 142 29 17 21 18
21 18 -11 0 -28 4 -33 25 -33 l25 0 0 170 0 170 -25 0 -25 0 0 -124 c0 -122
-1 -125 -26 -145 -37 -29 -61 -34 -93 -21 -42 17 -51 48 -51 175 l0 115 -26 0
-26 0 4 -132z"/>
<path d="M13789 3334 c-9 -11 -10 -20 -2 -32 15 -24 44 -27 59 -7 28 38 -27
75 -57 39z"/>
</g>
</svg>
