<?xml version="1.0" standalone="no"?>
<!DOCTYPE svg PUBLIC "-//W3C//DTD SVG 20010904//EN"
 "http://www.w3.org/TR/2001/REC-SVG-20010904/DTD/svg10.dtd">
<svg version="1.0" xmlns="http://www.w3.org/2000/svg"
 width="1710.000000pt" height="741.000000pt" viewBox="0 0 1710.000000 741.000000"
 preserveAspectRatio="xMidYMid meet">

<g transform="translate(0.000000,741.000000) scale(0.100000,-0.100000)"
fill="#000000" stroke="none">
<path d="M13940 6764 c-119 -11 -277 -38 -395 -69 -771 -197 -1394 -824 -1589
-1598 -47 -186 -66 -345 -66 -556 0 -195 9 -288 45 -463 50 -243 176 -547 312
-753 361 -545 935 -907 1571 -989 158 -20 425 -21 579 -1 480 63 911 269 1252
599 375 363 603 813 672 1326 19 138 17 460 -4 595 -100 650 -441 1188 -981
1546 -267 178 -575 296 -896 344 -103 15 -411 27 -500 19z m505 -134 c161 -27
221 -43 217 -61 -1 -8 -24 -72 -51 -144 -69 -183 -56 -184 -298 35 -103 94
-190 179 -191 187 -4 14 9 15 100 9 56 -4 157 -16 223 -26z m-775 -117 c-270
-132 -276 -134 -310 -122 -19 7 -45 13 -58 13 -14 1 -30 13 -43 33 l-21 33 47
20 c143 61 347 119 510 144 170 26 166 22 -125 -121z m290 87 c0 -18 -893
-1091 -904 -1087 -6 3 -10 11 -8 18 2 8 62 174 133 370 123 335 132 356 160
366 18 7 35 24 43 45 13 30 38 44 283 165 147 72 274 132 281 132 6 1 12 -4
12 -9z m333 -166 l182 -166 -3 -49 c-3 -41 0 -52 22 -74 14 -14 33 -25 44 -25
15 0 37 -48 114 -245 l96 -245 -34 -36 -34 -36 -392 84 -391 84 -11 38 c-6 21
-25 52 -42 69 l-31 32 88 300 c49 165 96 324 104 353 11 36 21 52 33 52 9 1
28 7 42 15 14 8 26 14 28 15 2 0 85 -75 185 -166z m504 109 c57 -19 83 -32 83
-43 0 -8 -14 -197 -30 -420 -16 -223 -30 -413 -30 -423 0 -13 -6 -17 -21 -15
-18 2 -37 43 -115 242 l-94 238 25 26 c31 31 33 79 4 116 l-22 28 43 116 c60
165 59 162 67 162 4 0 44 -12 90 -27z m-902 -284 c-124 -423 -109 -385 -155
-393 -21 -3 -52 -18 -69 -32 -32 -26 -56 -91 -46 -123 4 -14 -39 -38 -251
-140 -241 -117 -256 -122 -269 -105 -12 17 -11 23 8 47 71 89 863 1044 865
1042 1 -1 -36 -135 -83 -296z m1099 206 c51 -23 79 -42 85 -57 5 -13 39 -168
76 -346 l68 -323 -18 -39 c-10 -21 -15 -50 -13 -64 5 -24 0 -27 -119 -67 -68
-22 -126 -39 -127 -38 -2 2 -11 19 -20 37 -10 19 -31 41 -47 50 -16 10 -29 24
-29 32 0 8 14 197 30 420 16 223 30 411 30 418 0 16 -3 17 84 -23z m-1765 -44
c17 -23 20 -38 15 -72 -5 -36 -2 -48 14 -65 l21 -22 -134 -363 c-85 -231 -139
-365 -148 -367 -13 -3 -14 49 -10 395 5 351 7 400 22 415 15 16 179 107 193
108 4 0 16 -13 27 -29z m2039 -109 c101 -66 231 -168 238 -187 3 -7 -38 -97
-91 -200 -97 -185 -97 -186 -129 -183 l-31 3 -67 315 c-37 173 -67 321 -68
328 0 16 38 -3 148 -76z m-2308 -249 c0 -137 -3 -312 -7 -390 -6 -136 -7 -142
-29 -147 -12 -3 -36 -17 -53 -31 l-30 -26 -213 157 c-117 86 -215 158 -217
160 -14 13 168 221 286 327 81 72 242 196 256 197 4 0 7 -111 7 -247z m2840
-248 c83 -111 203 -309 189 -313 -5 -2 -142 29 -304 69 l-295 73 -21 43 -20
42 97 188 97 187 94 -98 c51 -54 125 -140 163 -191z m-3188 -217 c122 -90 214
-164 206 -166 -12 -2 -494 107 -546 123 -10 4 -9 12 4 37 20 39 105 168 111
168 2 0 103 -73 225 -162z m1676 11 c355 -76 437 -98 366 -100 -16 0 -363 -26
-772 -57 -422 -33 -746 -54 -749 -49 -7 12 -14 9 265 143 217 105 245 116 253
101 15 -27 64 -47 113 -47 36 0 52 6 81 31 19 17 35 37 35 45 0 8 7 14 15 14
8 0 185 -36 393 -81z m1419 -76 l312 -78 30 -65 c16 -37 31 -75 33 -85 2 -15
-36 -40 -202 -132 -113 -62 -209 -112 -213 -113 -5 0 -24 12 -43 27 -28 21
-47 27 -90 27 -53 1 -55 2 -64 36 -6 19 -36 123 -69 230 -54 178 -57 197 -43
213 8 9 20 17 26 17 6 0 151 -34 323 -77z m-428 29 l35 -7 67 -225 c67 -220
68 -225 49 -244 -22 -23 8 -46 -284 214 -113 101 -204 186 -200 189 16 16 252
90 274 85 14 -3 40 -8 59 -12z m-2725 -107 l261 -62 7 -34 c4 -19 8 -42 10
-52 2 -12 -126 -143 -412 -423 l-415 -405 -3 108 c-7 248 70 587 193 849 42
91 45 94 71 88 15 -4 145 -35 288 -69z m2134 0 c7 -14 12 -30 12 -36 0 -5 -84
-106 -186 -224 -159 -183 -189 -213 -205 -205 -25 14 -55 12 -88 -4 -26 -14
-50 -6 -522 170 -272 101 -505 189 -519 196 -21 10 104 22 700 69 399 31 741
57 761 58 29 1 38 -4 47 -24z m484 -223 c198 -176 217 -195 207 -214 -6 -12
-9 -49 -7 -85 l4 -63 -239 -186 c-132 -103 -248 -189 -258 -191 -11 -3 -21 1
-24 8 -2 8 -16 176 -29 374 -14 198 -28 390 -32 428 l-6 67 26 0 c33 0 74 21
100 49 10 11 24 17 30 14 6 -4 109 -94 228 -201z m-417 146 c4 -11 65 -825 65
-865 0 -7 -9 -13 -20 -13 -22 0 -460 324 -460 340 0 5 5 12 11 15 6 4 9 29 8
57 l-3 50 185 214 c101 118 190 214 197 214 7 0 15 -6 17 -12z m-1095 -242
l515 -193 3 -45 2 -46 -377 -359 c-209 -199 -384 -357 -392 -356 -24 4 -81 15
-81 17 0 0 -65 244 -144 541 l-144 540 33 28 c19 15 37 36 40 47 4 11 12 20
18 19 7 0 244 -87 527 -193z m-770 115 c0 -3 -128 -296 -284 -651 -274 -621
-286 -645 -313 -648 -15 -2 -39 -14 -53 -27 l-25 -24 -70 37 c-64 34 -71 41
-82 82 -19 64 -50 242 -58 330 l-7 76 432 421 c392 383 460 443 460 404z
m3244 -88 c31 -102 73 -299 65 -308 -6 -5 -496 78 -503 86 -2 2 -6 23 -7 47
l-4 42 200 110 c110 60 205 109 211 110 6 0 23 -39 38 -87z m-3190 68 c4 -5
-7 -182 -24 -393 -30 -383 -30 -383 -55 -401 -18 -14 -25 -28 -25 -53 0 -31
-16 -47 -236 -244 -130 -115 -240 -207 -245 -205 -4 3 3 31 17 63 14 31 143
324 286 650 143 325 264 592 269 592 4 0 10 -4 13 -9z m70 -18 c3 -10 69 -256
146 -547 139 -523 143 -545 108 -546 -3 0 -68 49 -145 108 -133 104 -138 109
-144 151 -3 24 -12 47 -20 52 -8 5 -19 12 -26 16 -9 7 -5 97 18 383 16 206 29
381 29 388 0 19 28 14 34 -5z m3197 -427 c13 -48 21 -295 12 -380 -14 -135 -4
-140 -309 165 l-265 265 20 35 21 35 257 -45 257 -46 7 -29z m-770 29 c50 -28
103 -32 153 -11 l33 14 263 -263 c264 -264 288 -295 234 -303 -17 -2 -1127
168 -1192 183 -13 3 -22 12 -20 20 2 11 472 385 483 385 2 0 23 -11 46 -25z
m-1188 -2 c14 -5 17 -18 17 -87 0 -44 5 -243 11 -441 8 -268 8 -360 0 -363 -7
-2 -24 -14 -39 -26 l-27 -23 -378 82 c-207 45 -379 84 -381 86 -2 2 -6 18 -8
35 -3 28 21 54 377 392 259 246 385 360 395 356 8 -4 23 -9 33 -11z m285 -173
c164 -123 220 -169 214 -180 -3 -8 -6 -36 -5 -62 l2 -47 -191 -218 c-105 -120
-194 -219 -197 -221 -4 -1 -14 3 -23 10 -15 11 -18 59 -27 378 -13 441 -14
513 -2 508 4 -1 108 -77 229 -168z m984 -330 c315 -50 583 -92 596 -95 15 -4
22 -13 22 -28 0 -19 -55 -52 -378 -225 l-377 -203 -30 18 c-16 9 -50 20 -75
23 l-44 5 -167 278 c-166 276 -183 317 -138 317 10 0 276 -41 591 -90z m-477
-250 l164 -273 -22 -28 c-12 -16 -32 -28 -45 -28 -13 -1 -183 24 -379 54 -196
30 -357 55 -359 55 -1 0 -5 11 -8 25 -6 23 17 53 188 248 l194 222 52 -1 52
-2 163 -272z m-2135 246 c14 0 30 2 36 5 13 5 304 -219 304 -235 0 -6 -4 -17
-9 -25 -8 -12 -269 -65 -814 -165 -32 -6 -38 -5 -35 9 5 27 461 425 478 418 8
-4 26 -7 40 -7z m3263 -212 c-2 -47 -45 -201 -82 -293 l-26 -66 -125 -6 c-217
-12 -530 -14 -532 -5 -3 10 742 416 757 412 6 -2 9 -21 8 -42z m-3092 -526
l-200 -383 -58 1 -57 0 -206 299 -207 299 21 32 c20 30 27 33 141 54 66 12
257 48 425 80 l305 57 18 -28 19 -29 -201 -382z m764 353 c201 -43 368 -81
370 -83 2 -1 5 -16 7 -32 3 -28 -1 -31 -632 -357 l-635 -328 -24 23 -24 24
204 386 203 386 38 0 c30 0 45 7 66 29 15 16 34 29 44 30 9 0 181 -35 383 -78z
m-1687 -30 c41 -21 60 -37 68 -57 9 -26 6 -34 -25 -72 -39 -49 -39 -49 -72 46
-29 82 -38 112 -33 112 3 0 30 -13 62 -29z m2657 -145 l330 -51 5 -41 c4 -23
14 -53 23 -68 l18 -26 -137 -228 -137 -228 -51 0 c-28 1 -60 -2 -71 -6 -18 -7
-42 29 -217 329 -173 297 -195 339 -185 360 9 20 15 22 51 16 23 -4 190 -29
371 -57z m-2314 -233 c101 -147 197 -286 212 -309 l28 -42 -20 -33 c-12 -19
-21 -44 -21 -57 0 -21 -4 -23 -47 -20 -46 3 -50 6 -131 98 -102 116 -226 298
-293 432 -49 98 -50 101 -32 122 52 63 68 76 93 76 23 0 49 -32 211 -267z
m1831 227 c24 0 43 -28 223 -336 l196 -337 -20 -21 c-11 -12 -23 -34 -27 -50
-7 -28 -8 -28 -63 -22 -31 3 -405 31 -831 61 -426 31 -786 59 -799 61 -19 4
122 81 600 329 543 282 629 324 659 320 19 -3 47 -5 62 -5z m1718 -47 c0 -15
-124 -240 -172 -312 -54 -81 -179 -244 -183 -239 -1 2 -71 100 -154 218 -115
163 -151 220 -146 235 4 11 10 34 14 50 8 35 -13 32 281 44 268 11 360 12 360
4z m-531 -360 l154 -216 -104 -101 c-57 -56 -129 -120 -159 -143 l-56 -42
-164 42 -165 42 -3 30 c-5 56 -12 75 -43 110 l-31 35 133 225 134 225 35 -5
c19 -3 49 -1 65 4 17 5 35 10 40 10 6 1 80 -97 164 -216z m-1646 -333 c445
-33 812 -62 818 -65 5 -4 9 -16 9 -28 0 -27 26 -67 60 -95 l25 -20 -35 -139
-35 -138 -65 -18 c-148 -40 -285 -59 -465 -64 l-181 -6 -509 298 c-281 163
-516 303 -524 310 -23 22 -4 34 47 29 26 -3 411 -32 855 -64z m-1158 -11 c23
-44 12 -46 -32 -5 l-38 35 27 1 c21 0 31 -8 43 -31z m717 -265 c260 -152 475
-278 478 -281 8 -9 -118 7 -225 28 -222 44 -588 192 -632 255 -11 16 -44 73
-73 127 -47 90 -51 101 -39 123 7 13 14 24 15 24 1 0 216 -124 476 -276z
m-620 201 c18 -4 45 -2 59 4 25 9 28 6 77 -82 27 -51 49 -94 47 -95 -5 -5
-115 70 -187 126 -55 42 -76 71 -44 59 8 -3 30 -9 48 -12z m2356 -79 c74 -19
136 -37 139 -40 8 -7 -128 -93 -235 -147 -105 -54 -301 -133 -309 -125 -3 3 8
58 24 123 l29 118 52 6 c59 8 92 26 124 69 12 17 27 30 32 30 6 0 71 -16 144
-34z"/>
<path d="M150 4580 c0 -1922 2 -2170 15 -2170 8 0 15 -9 15 -20 0 -19 7 -20
240 -20 l240 0 0 408 0 408 721 620 c396 340 724 620 727 621 4 1 243 -446
531 -995 289 -548 536 -1012 549 -1030 l24 -32 398 0 c370 0 398 1 405 18 4 9
80 226 170 482 90 256 166 473 170 483 7 16 75 17 1234 17 l1226 0 159 -473
c87 -259 164 -476 171 -482 6 -5 14 -18 18 -27 6 -17 28 -18 261 -18 l255 0
-108 317 c-507 1483 -1179 3432 -1203 3491 -36 87 -125 224 -197 304 -69 76
-159 143 -256 189 -128 61 -189 74 -355 74 -137 -1 -150 -3 -240 -34 -223 -76
-422 -258 -519 -473 -16 -35 -293 -830 -616 -1768 -323 -938 -593 -1717 -599
-1732 -10 -25 -41 29 -486 865 -530 996 -607 1144 -600 1149 3 3 156 135 340
295 437 379 492 436 565 596 109 240 93 494 -45 700 -114 170 -283 297 -474
356 -166 51 -161 51 -1493 51 l-1243 0 0 -2170z m2584 1637 c78 -23 146 -61
187 -103 30 -31 34 -42 37 -102 4 -72 -8 -115 -51 -181 -12 -18 -510 -452
-1107 -964 -597 -511 -1097 -941 -1112 -955 l-28 -26 0 1177 0 1178 1008 -3
c926 -3 1012 -5 1066 -21z m2977 -5 c58 -26 123 -84 154 -136 42 -72 249 -652
589 -1651 l183 -540 -523 -3 c-287 -1 -761 -1 -1052 0 l-530 3 367 1061 c256
738 377 1077 400 1112 36 57 103 122 150 146 76 40 185 43 262 8z"/>
<path d="M7352 6732 c23 -86 1308 -3801 1331 -3847 186 -372 562 -574 928
-501 250 51 460 218 580 461 22 44 329 923 687 1970 577 1684 646 1890 629
1893 -13 3 -17 9 -14 23 5 18 -3 19 -242 19 l-247 0 -623 -1807 c-343 -995
-635 -1830 -649 -1857 -42 -78 -97 -132 -170 -168 -58 -29 -77 -33 -142 -33
-66 1 -83 5 -138 35 -81 43 -125 94 -161 189 -15 42 -300 868 -631 1836 -332
968 -609 1764 -617 1768 -7 4 -13 15 -13 22 0 13 -39 15 -256 15 -244 0 -256
-1 -252 -18z"/>
<path d="M15863 2640 c-188 -3 -344 -8 -348 -11 -10 -11 299 -19 722 -19 232
0 423 -1 423 -3 0 -14 -178 -467 -315 -802 -145 -354 -319 -795 -422 -1070
l-30 -80 -252 -6 c-138 -3 -254 -9 -257 -11 -6 -7 468 -22 510 -17 27 4 32 13
87 147 32 79 104 263 161 409 l102 266 126 -7 c69 -3 244 -9 390 -12 146 -4
266 -7 267 -8 1 -1 -35 -125 -80 -276 l-82 -275 -130 -6 c-72 -4 -260 -8 -420
-9 l-290 -3 175 -8 c96 -5 291 -8 433 -6 l259 2 104 315 c57 173 104 316 104
318 0 1 -92 2 -205 2 -113 0 -205 3 -205 6 0 4 34 90 76 192 55 133 73 187 65
195 -17 17 -187 21 -312 8 -61 -7 -113 -10 -115 -8 -5 5 116 332 211 567 l82
205 -36 2 c-95 6 -490 7 -798 3z m750 -807 c92 -3 167 -9 167 -13 0 -4 -25
-83 -55 -177 l-55 -170 -207 -10 c-115 -5 -209 -8 -211 -7 -1 0 30 90 70 198
71 192 74 197 98 191 14 -3 100 -8 193 -12z"/>
<path d="M11405 2049 c-344 -27 -349 -31 -64 -55 351 -30 677 -23 739 16 20
12 13 17 -55 36 -92 25 -319 26 -620 3z"/>
<path d="M11225 1696 c-266 -20 -325 -27 -325 -37 0 -5 8 -9 18 -9 9 0 139 -9
287 -20 302 -22 427 -25 506 -10 82 15 139 32 139 41 0 4 -24 16 -52 25 -70
22 -345 27 -573 10z"/>
<path d="M11235 1356 c-5 -3 -129 -12 -274 -21 -145 -10 -275 -21 -290 -25
-26 -7 -25 -7 9 -14 19 -3 96 -10 170 -16 74 -5 208 -14 297 -21 90 -6 198 -8
245 -4 95 8 209 35 210 50 1 16 -140 44 -252 50 -58 3 -109 3 -115 1z"/>
<path d="M12672 814 c-85 -22 -179 -86 -223 -151 l-15 -22 -365 10 c-344 10
-534 6 -610 -10 -27 -6 -14 -9 61 -15 154 -11 307 -12 613 -2 158 4 287 6 287
3 0 -2 -7 -22 -16 -43 -42 -100 -36 -236 15 -339 38 -77 130 -166 208 -203 52
-24 69 -27 168 -27 104 0 113 2 170 32 109 57 196 171 210 275 l6 43 -19 -52
c-45 -124 -135 -204 -281 -247 -188 -56 -393 41 -457 215 -24 65 -22 181 5
251 24 62 94 147 151 183 89 56 225 70 331 35 77 -26 124 -56 175 -112 47 -50
61 -75 81 -133 l13 -40 -5 43 c-12 94 -96 212 -189 267 -88 51 -212 67 -314
39z"/>
<path d="M14898 817 c-67 -19 -154 -75 -202 -130 l-42 -48 -325 12 c-311 11
-879 6 -1099 -10 -181 -13 352 -24 901 -19 l516 5 -19 -51 c-77 -201 14 -423
217 -530 57 -29 66 -31 170 -31 98 0 116 3 167 27 67 31 138 94 172 151 30 52
59 149 53 179 -3 18 -5 17 -6 -7 -2 -51 -55 -147 -108 -197 -92 -85 -205 -124
-330 -115 -135 10 -238 78 -295 195 -30 60 -33 76 -33 152 0 74 4 93 32 152
94 201 328 275 536 171 97 -49 176 -146 197 -245 l9 -43 -4 46 c-12 129 -94
243 -220 305 -62 31 -85 37 -157 40 -50 2 -101 -1 -130 -9z"/>
<path d="M13181 414 c0 -11 3 -14 6 -6 3 7 2 16 -1 19 -3 4 -6 -2 -5 -13z"/>
</g>
</svg>
